<?xml version="1.0" standalone="no"?>
<!DOCTYPE svg PUBLIC "-//W3C//DTD SVG 20010904//EN"
 "http://www.w3.org/TR/2001/REC-SVG-20010904/DTD/svg10.dtd">
<svg version="1.0" xmlns="http://www.w3.org/2000/svg"
 width="1024.000000pt" height="1024.000000pt" viewBox="0 0 1024.000000 1024.000000"
 preserveAspectRatio="xMidYMid meet">

<g transform="translate(0.000000,1024.000000) scale(0.100000,-0.100000)"
fill="#000000" stroke="none">
<path d="M2777 8580 c-52 -41 -51 -19 -44 -1125 4 -566 7 -1234 7 -1483 l0
-454 29 -29 29 -29 336 0 336 0 32 29 33 29 3 1507 2 1507 -34 34 -34 34 -335
0 c-320 0 -335 -1 -360 -20z m574 -320 c15 -8 19 -22 19 -61 0 -45 -3 -51 -27
-60 -40 -16 -408 -6 -428 11 -22 18 -20 96 3 109 23 14 407 14 433 1z m14
-2336 c16 -32 7 -141 -13 -149 -26 -11 -413 -5 -434 6 -15 8 -18 22 -18 74 0
98 -6 96 243 93 202 -3 212 -4 222 -24z"/>
<path d="M3729 8571 l-29 -29 -1 -234 c0 -128 -1 -806 -1 -1506 0 -1165 2
-1275 17 -1298 9 -14 27 -29 41 -34 14 -6 108 -10 208 -10 l183 0 29 153 29
152 -163 5 c-194 6 -187 2 -182 115 1 28 6 55 11 60 6 6 91 12 191 15 l182 5
18 130 c10 72 27 162 39 200 26 85 97 227 154 304 l42 57 -4 939 c-4 1023 -1
973 -59 995 -14 6 -168 10 -350 10 l-326 0 -29 -29z m586 -321 c23 -19 20 -97
-4 -110 -12 -6 -100 -10 -218 -10 -164 0 -202 3 -221 16 -37 26 -26 101 18
117 29 12 410 -1 425 -13z"/>
<path d="M4684 8566 l-34 -34 0 -861 0 -861 49 30 c179 110 378 159 649 160
l102 0 -2 770 -3 770 -28 27 -27 28 -336 3 -335 3 -35 -35z m583 -309 c19 -12
24 -80 7 -104 -14 -23 -17 -23 -218 -23 -113 0 -212 3 -221 6 -38 15 -41 109
-4 122 23 9 422 7 436 -1z"/>
<path d="M6582 6970 c-34 -21 -52 -54 -52 -95 l0 -24 -717 -3 c-702 -3 -720
-4 -795 -25 -262 -74 -414 -202 -534 -449 -51 -103 -71 -183 -113 -439 -16
-99 -51 -301 -76 -450 -69 -393 -65 -505 19 -649 34 -59 127 -143 188 -171
123 -57 238 -57 359 1 111 53 165 117 283 330 158 286 202 352 254 385 l46 29
580 0 581 0 40 -23 c51 -29 93 -90 245 -357 131 -230 184 -298 276 -350 225
-130 505 -38 624 204 62 125 68 193 37 381 -102 605 -168 977 -182 1020 -53
155 -176 324 -306 421 -38 27 -48 41 -53 73 -7 48 -69 107 -161 152 -102 50
-153 59 -340 59 -152 0 -173 -2 -203 -20z m388 -446 c144 -58 102 -269 -54
-269 -65 0 -108 29 -131 89 -21 54 -9 109 32 148 51 49 91 57 153 32z m-1716
-86 c33 -14 41 -55 33 -169 l-7 -89 119 0 c151 0 151 0 151 -118 0 -48 -5 -94
-10 -102 -7 -12 -38 -16 -132 -20 l-123 -5 -3 -115 c-4 -147 -6 -150 -116
-150 -123 0 -126 3 -126 151 l0 119 -124 0 c-87 0 -127 4 -134 13 -6 7 -11 41
-12 77 -4 153 -7 150 150 150 l119 0 3 122 c3 119 4 123 28 135 31 16 151 17
184 1z m1395 -246 c106 -53 105 -204 -2 -253 -53 -23 -71 -23 -125 1 -34 15
-47 29 -63 66 -56 126 69 248 190 186z m660 0 c124 -67 73 -262 -68 -262 -84
0 -141 56 -141 140 0 109 112 174 209 122z m-315 -333 c37 -29 56 -70 56 -121
0 -142 -185 -189 -260 -66 -38 62 -17 147 45 188 42 28 123 27 159 -1z"/>
<path d="M2381 5394 c-19 -24 -21 -40 -21 -164 0 -121 2 -141 19 -161 l19 -24
856 -3 856 -2 0 82 c0 46 7 128 15 183 8 55 15 103 15 108 0 4 -391 7 -869 7
l-870 0 -20 -26z"/>
<path d="M2915 4991 c-3 -3 -5 -85 -5 -183 l1 -178 140 0 139 0 0 183 0 182
-135 1 c-75 0 -138 -2 -140 -5z"/>
<path d="M2380 4560 c-18 -18 -20 -33 -20 -164 0 -130 2 -146 21 -170 l20 -26
2723 0 c2625 0 2723 1 2739 18 14 16 17 43 17 175 0 150 -1 156 -22 171 -20
14 -297 16 -2740 16 -2705 0 -2718 0 -2738 -20z"/>
<path d="M6302 2828 l3 -553 97 -3 97 -3 3 264 c3 291 5 297 71 337 46 28 145
28 181 -1 58 -46 61 -61 61 -335 l0 -251 74 -7 c41 -3 87 -6 103 -6 l30 0 -4
298 c-3 276 -4 300 -24 342 -46 99 -114 146 -226 157 -80 7 -156 -13 -227 -61
l-51 -35 0 205 0 204 -95 0 -95 0 2 -552z"/>
<path d="M8040 2825 l0 -555 95 0 95 0 0 555 0 555 -95 0 -95 0 0 -555z"/>
<path d="M8617 3364 c-59 -18 -118 -75 -135 -130 -6 -23 -12 -72 -12 -110 l0
-69 -65 3 -65 3 0 -87 0 -86 65 4 65 3 0 -312 0 -313 95 0 95 0 0 313 0 312
85 -3 85 -3 0 86 0 86 -85 -3 -85 -3 0 53 c0 92 27 121 113 122 l57 0 0 75 0
75 -82 -1 c-46 0 -105 -7 -131 -15z"/>
<path d="M1751 3354 c-186 -40 -324 -179 -372 -374 -18 -70 -17 -259 0 -330
62 -251 239 -391 496 -392 240 -2 408 108 477 312 17 49 22 90 22 168 l1 103
-235 0 -235 0 -3 -81 -3 -80 136 0 c94 0 135 -3 135 -11 0 -37 -29 -97 -67
-139 -57 -63 -113 -85 -218 -85 -197 1 -305 128 -305 360 0 249 123 388 330
373 108 -8 200 -71 225 -155 6 -22 11 -23 121 -23 l114 0 -6 28 c-15 66 -66
155 -117 205 -119 116 -308 162 -496 121z"/>
<path d="M5609 3337 c-81 -28 -132 -65 -170 -125 -70 -110 -66 -245 10 -341
42 -53 129 -96 289 -143 198 -58 237 -82 249 -150 6 -43 -18 -100 -54 -123
-42 -28 -134 -40 -196 -26 -76 17 -123 58 -143 127 l-15 54 -101 0 -101 0 7
-55 c17 -146 121 -253 278 -286 79 -17 261 -6 329 20 72 28 133 80 167 145 23
44 27 63 27 141 0 104 -18 149 -81 205 -48 41 -102 65 -288 125 -182 58 -221
86 -221 158 0 80 65 127 178 127 103 0 197 -65 197 -136 0 -24 2 -24 100 -24
115 0 114 -1 85 97 -46 156 -172 233 -379 233 -78 0 -116 -6 -167 -23z"/>
<path d="M2720 3057 c-128 -30 -205 -102 -225 -210 l-7 -38 88 2 c88 2 89 2
104 32 26 52 63 72 134 72 97 0 146 -47 146 -140 l0 -35 -62 0 c-141 -1 -257
-19 -318 -50 -111 -56 -151 -184 -95 -297 44 -87 127 -134 245 -136 89 -2 154
18 201 63 l39 37 0 -44 0 -43 91 0 91 0 -4 293 -3 292 -28 57 c-33 66 -82 111
-146 133 -63 22 -184 27 -251 12z m240 -494 c0 -99 -56 -155 -158 -156 -72 0
-119 23 -138 69 -24 57 0 105 62 124 16 4 75 9 132 9 l102 1 0 -47z"/>
<path d="M3588 3055 c-27 -9 -66 -33 -89 -55 -23 -22 -43 -40 -44 -40 -2 0 -2
20 -1 45 l1 45 -92 0 -93 0 0 -390 0 -391 103 3 102 3 1 240 c1 133 4 257 8
276 9 53 54 91 113 96 72 7 119 -16 143 -69 18 -39 20 -67 20 -295 l0 -253
100 0 100 0 0 248 c0 137 5 263 10 284 16 58 60 88 127 88 34 0 66 -7 84 -17
55 -33 59 -55 59 -342 l0 -261 100 0 100 0 0 278 c0 152 -3 294 -6 315 -12 67
-63 139 -124 172 -49 26 -64 30 -140 29 -102 0 -171 -26 -223 -83 l-34 -38
-32 39 c-18 21 -50 48 -73 59 -53 27 -158 34 -220 14z"/>
<path d="M4824 3060 c-105 -22 -203 -102 -248 -200 -99 -218 -18 -490 170
-570 151 -65 344 -37 442 63 38 39 92 131 92 156 0 7 -31 11 -88 11 l-89 0
-24 -37 c-47 -74 -151 -102 -235 -64 -61 28 -114 111 -114 179 0 9 63 12 281
12 l282 0 -5 88 c-7 113 -35 186 -98 255 -65 71 -138 104 -245 111 -44 3 -99
1 -121 -4z m149 -154 c61 -22 93 -62 111 -138 l6 -28 -179 0 -180 0 14 46 c31
105 128 155 228 120z"/>
<path d="M7434 3060 c-195 -41 -313 -235 -284 -465 30 -235 212 -372 448 -335
143 23 246 108 286 238 7 22 6 22 -82 22 l-89 0 -24 -37 c-47 -74 -151 -102
-235 -64 -61 28 -114 111 -114 179 0 9 63 12 281 12 l281 0 -4 88 c-7 124 -35
191 -112 268 -43 43 -76 66 -111 78 -60 20 -184 29 -241 16z m149 -154 c61
-22 93 -62 111 -138 l6 -28 -175 0 c-169 0 -175 1 -175 20 0 58 51 122 117
145 48 18 68 18 116 1z"/>
</g>
</svg>
